<?xml version="1.0" encoding="utf-8"?>
<!-- Generator: Adobe Illustrator 21.1.0, SVG Export Plug-In . SVG Version: 6.00 Build 0)  -->
<svg version="1.1" id="Layer_1" xmlns="http://www.w3.org/2000/svg" xmlns:xlink="http://www.w3.org/1999/xlink" x="0px" y="0px"
	 viewBox="0 0 1920 1080" style="enable-background:new 0 0 1920 1080;" xml:space="preserve">
<style type="text/css">
	.st0{fill:none;stroke:#FFFFFF;stroke-width:0.25;stroke-miterlimit:10;}
</style>
<line class="st0" x1="-29" y1="-33" x2="1961" y2="-33"/>
<line class="st0" x1="-29" y1="17" x2="1961" y2="17"/>
<line class="st0" x1="-29" y1="67" x2="1961" y2="67"/>
<line class="st0" x1="-29" y1="117" x2="1961" y2="117"/>
<line class="st0" x1="-29" y1="167" x2="1961" y2="167"/>
<line class="st0" x1="-29" y1="217" x2="1961" y2="217"/>
<line class="st0" x1="-29" y1="267" x2="1961" y2="267"/>
<polyline class="st0" points="1961,317 1934.7,317 1884.7,317 1834.7,317 1784.7,317 1734.7,317 1684.7,317 1634.7,317 1584.7,317 
	1534.7,317 1484.7,317 1434.7,317 1384.7,317 1334.7,317 1284.7,317 1234.7,317 1184.7,317 1134.7,317 1084.7,317 1034.7,317 
	984.7,317 934.7,317 884.7,317 834.7,317 784.7,317 734.7,317 684.7,317 634.7,317 584.7,317 534.7,317 484.7,317 434.7,317 
	384.7,317 334.7,317 284.7,317 234.7,317 184.7,317 134.7,317 84.7,317 34.7,317 -15.3,317 -29,317 "/>
<polyline class="st0" points="1684.7,367 1734.7,367 1784.7,367 1834.7,367 1884.7,367 1934.7,367 1961,367 "/>
<polyline class="st0" points="1134.7,367 1084.7,367 1034.7,367 984.7,367 934.7,367 884.7,367 834.7,367 784.7,367 734.7,367 
	684.7,367 634.7,367 584.7,367 534.7,367 484.7,367 434.7,367 384.7,367 334.7,367 284.7,367 234.7,367 184.7,367 134.7,367 
	84.7,367 34.7,367 -15.3,367 -29,367 "/>
<polyline class="st0" points="1684.7,417 1734.7,417 1784.7,417 1834.7,417 1884.7,417 1934.7,417 1961,417 "/>
<polyline class="st0" points="1134.7,417 1084.7,417 1034.7,417 984.7,417 934.7,417 884.7,417 834.7,417 784.7,417 734.7,417 
	684.7,417 634.7,417 584.7,417 534.7,417 484.7,417 434.7,417 384.7,417 334.7,417 284.7,417 234.7,417 184.7,417 134.7,417 
	84.7,417 34.7,417 -15.3,417 -29,417 "/>
<polyline class="st0" points="1684.7,467 1734.7,467 1784.7,467 1834.7,467 1884.7,467 1934.7,467 1961,467 "/>
<polyline class="st0" points="1134.7,467 1084.7,467 1034.7,467 984.7,467 934.7,467 884.7,467 834.7,467 784.7,467 734.7,467 
	684.7,467 634.7,467 584.7,467 534.7,467 484.7,467 434.7,467 384.7,467 334.7,467 284.7,467 234.7,467 184.7,467 134.7,467 
	84.7,467 34.7,467 -15.3,467 -29,467 "/>
<polyline class="st0" points="1134.7,517 1084.7,517 1034.7,517 984.7,517 934.7,517 884.7,517 834.7,517 784.7,517 734.7,517 
	684.7,517 634.7,517 584.7,517 534.7,517 484.7,517 434.7,517 384.7,517 334.7,517 284.7,517 234.7,517 184.7,517 134.7,517 
	84.7,517 34.7,517 -15.3,517 -29,517 "/>
<polyline class="st0" points="1684.7,517 1734.7,517 1784.7,517 1834.7,517 1884.7,517 1934.7,517 1961,517 "/>
<polyline class="st0" points="1961,567 1934.7,567 1884.7,567 1834.7,567 1784.7,567 1734.7,567 1684.7,567 "/>
<polyline class="st0" points="-29,567 -15.3,567 34.7,567 84.7,567 134.7,567 184.7,567 234.7,567 284.7,567 334.7,567 384.7,567 
	434.7,567 484.7,567 534.7,567 584.7,567 634.7,567 684.7,567 734.7,567 784.7,567 834.7,567 884.7,567 934.7,567 984.7,567 
	1034.7,567 1084.7,567 1134.7,567 "/>
<polyline class="st0" points="1961,617 1934.7,617 1884.7,617 1834.7,617 1784.7,617 1734.7,617 1684.7,617 "/>
<polyline class="st0" points="-29,617 -15.3,617 34.7,617 84.7,617 134.7,617 184.7,617 234.7,617 284.7,617 334.7,617 384.7,617 
	434.7,617 484.7,617 534.7,617 584.7,617 634.7,617 684.7,617 734.7,617 784.7,617 834.7,617 884.7,617 934.7,617 984.7,617 
	1034.7,617 1084.7,617 1134.7,617 "/>
<polyline class="st0" points="1961,667 1934.7,667 1884.7,667 1834.7,667 1784.7,667 1734.7,667 1684.7,667 "/>
<polyline class="st0" points="-29,667 -15.3,667 34.7,667 84.7,667 134.7,667 184.7,667 234.7,667 284.7,667 334.7,667 384.7,667 
	434.7,667 484.7,667 534.7,667 584.7,667 634.7,667 684.7,667 734.7,667 784.7,667 834.7,667 884.7,667 934.7,667 984.7,667 
	1034.7,667 1084.7,667 1134.7,667 "/>
<polyline class="st0" points="1961,717 1934.7,717 1884.7,717 1834.7,717 1784.7,717 1734.7,717 1684.7,717 "/>
<polyline class="st0" points="-29,717 -15.3,717 34.7,717 84.7,717 134.7,717 184.7,717 234.7,717 284.7,717 334.7,717 384.7,717 
	434.7,717 484.7,717 534.7,717 584.7,717 634.7,717 684.7,717 734.7,717 784.7,717 834.7,717 884.7,717 934.7,717 984.7,717 
	1034.7,717 1084.7,717 1134.7,717 "/>
<polyline class="st0" points="1134.7,767 1084.7,767 1034.7,767 984.7,767 934.7,767 884.7,767 834.7,767 784.7,767 734.7,767 
	684.7,767 634.7,767 584.7,767 534.7,767 484.7,767 434.7,767 384.7,767 334.7,767 284.7,767 234.7,767 184.7,767 134.7,767 
	84.7,767 34.7,767 -15.3,767 -29,767 "/>
<polyline class="st0" points="1684.7,767 1734.7,767 1784.7,767 1834.7,767 1884.7,767 1934.7,767 1961,767 "/>
<polyline class="st0" points="1961,817 1934.7,817 1884.7,817 1834.7,817 1784.7,817 1734.7,817 1684.7,817 1634.7,817 1584.7,817 
	1534.7,817 1484.7,817 1434.7,817 1384.7,817 1334.7,817 1284.7,817 1234.7,817 1184.7,817 1134.7,817 1084.7,817 1034.7,817 
	984.7,817 934.7,817 884.7,817 834.7,817 784.7,817 734.7,817 684.7,817 634.7,817 584.7,817 534.7,817 484.7,817 434.7,817 
	384.7,817 334.7,817 284.7,817 234.7,817 184.7,817 134.7,817 84.7,817 34.7,817 -15.3,817 -29,817 "/>
<line class="st0" x1="-29" y1="867" x2="1961" y2="867"/>
<line class="st0" x1="-29" y1="917" x2="1961" y2="917"/>
<line class="st0" x1="-29" y1="967" x2="1961" y2="967"/>
<line class="st0" x1="-29" y1="1017" x2="1961" y2="1017"/>
<line class="st0" x1="-29" y1="1067" x2="1961" y2="1067"/>
<line class="st0" x1="-29" y1="1117" x2="1961" y2="1117"/>
<line class="st0" x1="-29" y1="1167" x2="1961" y2="1167"/>
<line class="st0" x1="-29" y1="1217" x2="1961" y2="1217"/>
<line class="st0" x1="-15.3" y1="-84.2" x2="-15.3" y2="1241"/>
<line class="st0" x1="34.7" y1="-84.2" x2="34.7" y2="1241"/>
<line class="st0" x1="84.7" y1="-84.2" x2="84.7" y2="1241"/>
<line class="st0" x1="134.7" y1="-84.2" x2="134.7" y2="1241"/>
<line class="st0" x1="184.7" y1="-84.2" x2="184.7" y2="1241"/>
<line class="st0" x1="234.7" y1="-84.2" x2="234.7" y2="1241"/>
<line class="st0" x1="284.7" y1="-84.2" x2="284.7" y2="1241"/>
<line class="st0" x1="334.7" y1="-84.2" x2="334.7" y2="1241"/>
<line class="st0" x1="384.7" y1="-84.2" x2="384.7" y2="1241"/>
<line class="st0" x1="434.7" y1="-84.2" x2="434.7" y2="1241"/>
<line class="st0" x1="484.7" y1="-84.2" x2="484.7" y2="1241"/>
<line class="st0" x1="534.7" y1="-84.2" x2="534.7" y2="1241"/>
<line class="st0" x1="584.7" y1="-84.2" x2="584.7" y2="1248.1"/>
<line class="st0" x1="634.7" y1="-84.2" x2="634.7" y2="1248.1"/>
<line class="st0" x1="684.7" y1="-84.2" x2="684.7" y2="1248.1"/>
<line class="st0" x1="734.7" y1="-84.2" x2="734.7" y2="1248.1"/>
<line class="st0" x1="784.7" y1="-84.2" x2="784.7" y2="1248.1"/>
<line class="st0" x1="834.7" y1="-84.2" x2="834.7" y2="1248.1"/>
<line class="st0" x1="884.7" y1="-84.2" x2="884.7" y2="1248.1"/>
<line class="st0" x1="934.7" y1="-84.2" x2="934.7" y2="1248.1"/>
<line class="st0" x1="984.7" y1="-84.2" x2="984.7" y2="1248.1"/>
<line class="st0" x1="1034.7" y1="-84.2" x2="1034.7" y2="1248.1"/>
<line class="st0" x1="1084.7" y1="-84.2" x2="1084.7" y2="1248.1"/>
<polyline class="st0" points="1134.7,1248.1 1134.7,1217 1134.7,1167 1134.7,1117 1134.7,1067 1134.7,1017 1134.7,967 1134.7,917 
	1134.7,867 1134.7,817 1134.7,767 1134.7,717 1134.7,667 1134.7,617 1134.7,567 1134.7,517 1134.7,467 1134.7,417 1134.7,367 
	1134.7,317 1134.7,267 1134.7,217 1134.7,167 1134.7,117 1134.7,67 1134.7,17 1134.7,-33 1134.7,-84.2 "/>
<polyline class="st0" points="1184.7,1241 1184.7,1217 1184.7,1167 1184.7,1117 1184.7,1067 1184.7,1017 1184.7,967 1184.7,917 
	1184.7,867 1184.7,817 "/>
<polyline class="st0" points="1184.7,317 1184.7,267 1184.7,217 1184.7,167 1184.7,117 1184.7,67 1184.7,17 1184.7,-33 
	1184.7,-84.2 "/>
<polyline class="st0" points="1234.7,817 1234.7,867 1234.7,917 1234.7,967 1234.7,1017 1234.7,1067 1234.7,1117 1234.7,1167 
	1234.7,1217 1234.7,1241 "/>
<polyline class="st0" points="1234.7,317 1234.7,267 1234.7,217 1234.7,167 1234.7,117 1234.7,67 1234.7,17 1234.7,-33 
	1234.7,-84.2 "/>
<polyline class="st0" points="1284.7,1248.1 1284.7,1217 1284.7,1167 1284.7,1117 1284.7,1067 1284.7,1017 1284.7,967 1284.7,917 
	1284.7,867 1284.7,817 "/>
<polyline class="st0" points="1284.7,317 1284.7,267 1284.7,217 1284.7,167 1284.7,117 1284.7,67 1284.7,17 1284.7,-33 
	1284.7,-84.2 "/>
<polyline class="st0" points="1334.7,317 1334.7,267 1334.7,217 1334.7,167 1334.7,117 1334.7,67 1334.7,17 1334.7,-33 
	1334.7,-84.2 "/>
<polyline class="st0" points="1334.7,1248.1 1334.7,1217 1334.7,1167 1334.7,1117 1334.7,1067 1334.7,1017 1334.7,967 1334.7,917 
	1334.7,867 1334.7,817 "/>
<polyline class="st0" points="1384.7,817 1384.7,867 1384.7,917 1384.7,967 1384.7,1017 1384.7,1067 1384.7,1117 1384.7,1167 
	1384.7,1217 1384.7,1248.1 "/>
<polyline class="st0" points="1384.7,317 1384.7,267 1384.7,217 1384.7,167 1384.7,117 1384.7,67 1384.7,17 1384.7,-33 
	1384.7,-84.2 "/>
<polyline class="st0" points="1434.7,1248.1 1434.7,1217 1434.7,1167 1434.7,1117 1434.7,1067 1434.7,1017 1434.7,967 1434.7,917 
	1434.7,867 1434.7,817 "/>
<polyline class="st0" points="1434.7,317 1434.7,267 1434.7,217 1434.7,167 1434.7,117 1434.7,67 1434.7,17 1434.7,-33 
	1434.7,-84.2 "/>
<polyline class="st0" points="1484.7,-84.2 1484.7,-33 1484.7,17 1484.7,67 1484.7,117 1484.7,167 1484.7,217 1484.7,267 
	1484.7,317 "/>
<polyline class="st0" points="1484.7,817 1484.7,867 1484.7,917 1484.7,967 1484.7,1017 1484.7,1067 1484.7,1117 1484.7,1167 
	1484.7,1217 1484.7,1248.1 "/>
<polyline class="st0" points="1534.7,817 1534.7,867 1534.7,917 1534.7,967 1534.7,1017 1534.7,1067 1534.7,1117 1534.7,1167 
	1534.7,1217 1534.7,1248.1 "/>
<polyline class="st0" points="1534.7,317 1534.7,267 1534.7,217 1534.7,167 1534.7,117 1534.7,67 1534.7,17 1534.7,-33 
	1534.7,-84.2 "/>
<polyline class="st0" points="1584.7,1248.1 1584.7,1217 1584.7,1167 1584.7,1117 1584.7,1067 1584.7,1017 1584.7,967 1584.7,917 
	1584.7,867 1584.7,817 "/>
<polyline class="st0" points="1584.7,317 1584.7,267 1584.7,217 1584.7,167 1584.7,117 1584.7,67 1584.7,17 1584.7,-33 
	1584.7,-84.2 "/>
<polyline class="st0" points="1634.7,817 1634.7,867 1634.7,917 1634.7,967 1634.7,1017 1634.7,1067 1634.7,1117 1634.7,1167 
	1634.7,1217 1634.7,1248.1 "/>
<polyline class="st0" points="1634.7,317 1634.7,267 1634.7,217 1634.7,167 1634.7,117 1634.7,67 1634.7,17 1634.7,-33 
	1634.7,-84.2 "/>
<polyline class="st0" points="1684.7,1241 1684.7,1217 1684.7,1167 1684.7,1117 1684.7,1067 1684.7,1017 1684.7,967 1684.7,917 
	1684.7,867 1684.7,817 1684.7,767 1684.7,717 1684.7,667 1684.7,617 1684.7,567 1684.7,517 1684.7,467 1684.7,417 1684.7,367 
	1684.7,317 1684.7,267 1684.7,217 1684.7,167 1684.7,117 1684.7,67 1684.7,17 1684.7,-33 1684.7,-84.2 "/>
<line class="st0" x1="1734.7" y1="-84.2" x2="1734.7" y2="1241"/>
<line class="st0" x1="1784.7" y1="-84.2" x2="1784.7" y2="1248.1"/>
<line class="st0" x1="1834.7" y1="-84.2" x2="1834.7" y2="1248.1"/>
<line class="st0" x1="1884.7" y1="-84.2" x2="1884.7" y2="1248.1"/>
<line class="st0" x1="1934.7" y1="-84.2" x2="1934.7" y2="1248.1"/>
<line class="st0" x1="1984.7" y1="-84.2" x2="1984.7" y2="1248.1"/>
<line class="st0" x1="2034.7" y1="-84.2" x2="2034.7" y2="1248.1"/>
</svg>
