<svg width="113" height="30" viewBox="0 0 113 30" fill="none" xmlns="http://www.w3.org/2000/svg">
<g filter="url(#filter0_d)">
<path d="M25.6293 9.48389H11.7719L13.9204 6.13428H21.9868C22.8592 6.13428 23.673 6.47282 24.4282 7.1499C25.1964 7.84652 25.5968 8.62451 25.6293 9.48389ZM25.8833 10.7925C25.8833 13.1427 25.4275 14.9852 24.5161 16.3198C23.7869 17.3875 23.1196 18.1493 22.5141 18.605C21.3097 19.5099 19.7993 19.9624 17.9829 19.9624H10.0336L12.6508 10.7925H17.5825L15.9223 16.3784C16.2348 16.5021 16.5701 16.564 16.9282 16.564C17.5987 16.564 18.2921 16.3621 19.0083 15.9585C20.1736 15.3009 20.9353 14.3602 21.2934 13.1362C21.4822 12.4982 21.5896 11.717 21.6157 10.7925H25.8833ZM40.7661 6.13428L39.8774 9.48389H26.8501L28.9985 6.13428H40.7661ZM39.4672 10.7925L38.5004 14.4351H32.0161L31.479 16.3198H37.934L36.9672 19.9038H25.229L27.6704 10.7925H39.4672ZM55.6782 9.48389H41.3129L44.1938 6.07568L53.0903 6.06592C54.8351 6.06592 55.7075 7.00667 55.7075 8.88818C55.7075 9.07699 55.6977 9.27555 55.6782 9.48389ZM55.5415 10.812C55.5415 11.6714 55.0239 12.2996 53.9887 12.6968C54.3728 13.3413 54.5779 13.6896 54.604 13.7417C54.7602 14.0737 54.8383 14.5002 54.8383 15.021C54.8383 15.0731 54.8318 15.2065 54.8188 15.4214C54.7407 16.73 54.2133 17.7944 53.2368 18.6147C52.462 19.2658 51.632 19.702 50.7465 19.9233L39.8286 19.9038L42.4848 10.812H55.5415ZM49.2426 15.5386C49.2426 15.1284 49.1027 14.9006 48.8227 14.855H45.7172L45.3266 16.2515H48.4321C48.6209 16.2515 48.8032 16.1799 48.979 16.0366C49.1547 15.8869 49.2426 15.7209 49.2426 15.5386ZM69.184 9.48389H60.5512L63.4223 6.13428H68.4711L69.184 9.48389ZM71.4106 19.9038H66.3911L65.0336 14.4644L62.2016 14.4741L58.1782 19.9136L52.3188 19.9038L59.477 10.7632H69.4575L71.4106 19.9038ZM87.7973 6.13428L86.9086 9.45459H73.9399C74.2068 8.64079 74.7049 7.90511 75.434 7.24756C76.2543 6.50537 77.1007 6.13428 77.9731 6.13428H87.7973ZM86.0395 15.6069C85.9353 16.6681 85.3982 17.6838 84.4282 18.6538C83.8878 19.1942 83.061 19.6206 81.9477 19.9331L71.0297 19.9038L72.0942 16.1147L79.6528 16.144C80.3038 16.0724 80.6293 15.7534 80.6293 15.187C80.6293 14.8615 80.5968 14.6466 80.5317 14.5425C80.4471 14.4058 80.2322 14.2821 79.8872 14.1714H76.0297C75.1964 14.1714 74.5812 13.9631 74.184 13.5464C73.7934 13.1232 73.5981 12.4364 73.5981 11.4858C73.5981 11.0236 73.5981 10.7925 73.5981 10.7925H82.436C83.5167 10.9357 84.2459 11.1506 84.6235 11.437C84.6756 11.4826 85.0369 11.8765 85.7075 12.6187C85.9549 13.2567 86.0786 13.9826 86.0786 14.7964C86.0786 15.0698 86.0655 15.34 86.0395 15.6069ZM102.172 6.13428L101.284 9.48389H88.2563L90.4047 6.13428H102.172ZM100.873 10.7925L99.9067 14.4351H93.4223L92.8852 16.3198H99.3403L98.3735 19.9038H86.6352L89.0766 10.7925H100.873Z" fill="white"/>
</g>
<defs>
<filter id="filter0_d" x="0.0336456" y="-3.93408" width="112.139" height="33.8965" filterUnits="userSpaceOnUse" color-interpolation-filters="sRGB">
<feFlood flood-opacity="0" result="BackgroundImageFix"/>
<feColorMatrix in="SourceAlpha" type="matrix" values="0 0 0 0 0 0 0 0 0 0 0 0 0 0 0 0 0 0 127 0"/>
<feOffset/>
<feGaussianBlur stdDeviation="5"/>
<feColorMatrix type="matrix" values="0 0 0 0 0.520722 0 0 0 0 1 0 0 0 0 0.971243 0 0 0 1 0"/>
<feBlend mode="normal" in2="BackgroundImageFix" result="effect1_dropShadow"/>
<feBlend mode="normal" in="SourceGraphic" in2="effect1_dropShadow" result="shape"/>
</filter>
</defs>
</svg>
