<?xml version="1.0" encoding="utf-8"?>
<!-- Generator: Adobe Illustrator 21.1.0, SVG Export Plug-In . SVG Version: 6.00 Build 0)  -->
<svg version="1.1" id="Layer_1" xmlns="http://www.w3.org/2000/svg" xmlns:xlink="http://www.w3.org/1999/xlink" x="0px" y="0px"
	 viewBox="0 0 287 95" style="enable-background:new 0 0 287 95;" xml:space="preserve">
<style type="text/css">
	.st0{fill:#FFFFFF;}
</style>
<g>
	<image style="overflow:visible;opacity:0.63;" width="287" height="95" xlink:href="4A0AB655.png" >
	</image>
	<g>
		<g>
			<path class="st0" d="M61.9,39.4c0,6.4-1.2,11.4-3.7,15c-2,2.9-3.8,5-5.4,6.2c-3.3,2.5-7.4,3.7-12.3,3.7H18.9L26,39.4h13.4
				l-4.5,15.2c0.8,0.3,1.8,0.5,2.7,0.5c1.8,0,3.7-0.5,5.6-1.6c3.2-1.8,5.2-4.3,6.2-7.7c0.5-1.7,0.8-3.9,0.9-6.4H61.9z M61.2,35.8
				H23.6l5.8-9.1h21.9c2.4,0,4.6,0.9,6.6,2.8C60.1,31.4,61.1,33.5,61.2,35.8z"/>
			<path class="st0" d="M98.8,39.4l-2.6,9.9H78.5l-1.5,5.1h17.5L92,64.1H60.1l6.6-24.7H98.8z M102.3,26.7l-2.4,9.1H64.5l5.8-9.1
				H102.3z"/>
			<path class="st0" d="M142.4,39.4c0,2.3-1.4,4-4.2,5.1c1,1.8,1.6,2.7,1.7,2.8c0.4,0.9,0.6,2.1,0.6,3.5c0,0.1,0,0.5-0.1,1.1
				c-0.2,3.6-1.6,6.4-4.3,8.7c-2.1,1.8-4.4,3-6.8,3.6l-29.6-0.1l7.2-24.7H142.4z M142.8,35.8h-39l7.8-9.3l24.2,0
				c4.7,0,7.1,2.6,7.1,7.7C142.8,34.7,142.8,35.3,142.8,35.8z M125.3,52.3c0-1.1-0.4-1.7-1.1-1.9h-8.4l-1.1,3.8h8.4
				c0.5,0,1-0.2,1.5-0.6C125.1,53.2,125.3,52.8,125.3,52.3z"/>
			<path class="st0" d="M185.5,64.1h-13.6l-3.7-14.8h-7.7l-10.9,14.8l-15.9,0l19.4-24.8h27.1L185.5,64.1z M179.4,35.8H156l7.8-9.1
				h13.7L179.4,35.8z"/>
			<path class="st0" d="M225.1,52.5c-0.3,2.9-1.7,5.6-4.4,8.3c-1.5,1.5-3.7,2.6-6.7,3.5l-29.6-0.1l2.9-10.3l20.5,0.1
				c1.8-0.2,2.7-1.1,2.7-2.6c0-0.9-0.1-1.5-0.3-1.8c-0.2-0.4-0.8-0.7-1.7-1H198c-2.3,0-3.9-0.6-5-1.7c-1.1-1.1-1.6-3-1.6-5.6v-1.9
				h24c2.9,0.4,4.9,1,5.9,1.8c0.1,0.1,1.1,1.2,2.9,3.2c0.7,1.7,1,3.7,1,5.9C225.3,51,225.2,51.7,225.1,52.5z M229.9,26.7l-2.4,9
				h-35.2c0.7-2.2,2.1-4.2,4.1-6c2.2-2,4.5-3,6.9-3H229.9z"/>
			<path class="st0" d="M265.4,39.4l-2.6,9.9h-17.6l-1.5,5.1h17.5l-2.6,9.7h-31.9l6.6-24.7H265.4z M268.9,26.7l-2.4,9.1h-35.4
				l5.8-9.1H268.9z"/>
		</g>
	</g>
</g>
</svg>
